<?xml-stylesheet type="text/css" href="svg-style.css" ?>
<svg width="500" height="500" viewBox="0 0 1700 1700" preserveAspectRatio="xMidYMid meet" xmlns="http://www.w3.org/2000/svg">
<g class="text-box-container">
    <path class="bubble" d="M1536 768C1536 656.5 1225 660 1137 660L563.74 660.012C475.74 660.012 164.74 656.512 164.74 768.012C160.302 837.512 176.49 856.012 195.74 878.012C220.24 906.012 209.24 926.512 205.74 945.012C194.294 1005.51 241.74 1016.51 273.74 1025.01C305.74 1033.51 532.74 1041.01 563.74 1041.01L1137 1041C1168 1041 1395 1033.5 1427 1025C1459 1016.5 1506.45 1005.5 1495 945C1491.5 926.5 1480.5 906 1505 878C1524.25 856 1540.44 837.5 1536 768Z" fill="#FDF9E6"/>    
</g>
</svg>
