<?xml-stylesheet type="text/css" href="pointer-style.css" ?>
<svg width="384" height="303" viewBox="0 0 404 303" fill="none" xmlns="http://www.w3.org/2000/svg">
<path class="hand" d="M83.1212 87.3495C60.167 63.995 27.4995 92.3305 27.4995 116.001V195.501C27.4995 223.369 60.0095 244.066 80.6175 219.725C81.378 218.827 82.7562 218.694 83.6253 219.487C112.15 245.536 131.151 261.148 169.758 272.43C169.916 272.477 170.072 272.544 170.215 272.626C192.733 285.623 228.415 272.013 229.012 241.075C229.034 239.946 229.939 239.015 231.05 238.817C244.892 236.343 257.458 209.445 251.538 187.338C251.261 186.304 251.794 185.216 252.729 184.696C262.103 179.497 275.943 159.046 271.862 134.924C271.681 133.853 272.33 132.805 273.403 132.634C297.186 128.859 369.875 143.081 365.5 93.001C361.091 42.5436 269.812 64.0784 231.319 68.7345C230.088 68.8834 229.074 67.8745 229.067 66.6346C228.983 50.6889 217.924 28.3075 167 24.501C127.519 20.9038 100.602 49.7415 86.7136 86.6592C86.1645 88.1188 84.2143 88.4618 83.1212 87.3495Z" fill="white" stroke="#333333" stroke-width="10"/>
<path class="hand" d="M229.5 69C229.5 69 198.5 83 178.5 70" stroke="#333333" stroke-width="10" stroke-linecap="round"/>
<path class="hand" d="M278.5 132L229.5 127" stroke="#333333" stroke-width="10" stroke-linecap="round"/>
<path class="hand" d="M251 186.5L218.5 181.5" stroke="#333333" stroke-width="10" stroke-linecap="round"/>
<path class="hand" d="M229 240L203.5 229" stroke="#333333" stroke-width="10" stroke-linecap="round"/>
<path class="hand" d="M82.4995 220.5L85.4995 196" stroke="#333333" stroke-width="10" stroke-linecap="round"/>
<path class="hand" d="M84.9995 87L86.9995 99.5" stroke="#333333" stroke-width="10" stroke-linecap="round"/>
<rect class="hand" x="43" y="99" width="14" height="113" rx="7" fill="#777777"/>
</svg>
